<svg xmlns="http://www.w3.org/2000/svg" width="512" height="512" viewBox="0 0 512 512">
  <defs>
    <linearGradient id="tile" x1="0.12" y1="0" x2="0.88" y2="1">
      <stop offset="0" stop-color="#2c2825"></stop>
      <stop offset="0.44" stop-color="#232430"></stop>
      <stop offset="1" stop-color="#161b26"></stop>
    </linearGradient>
    <radialGradient id="sheen" cx="0.24" cy="0.16" r="0.5">
      <stop offset="0" stop-color="#ffffff" stop-opacity="0.16"></stop>
      <stop offset="0.55" stop-color="#ffffff" stop-opacity="0.03"></stop>
      <stop offset="1" stop-color="#ffffff" stop-opacity="0"></stop>
    </radialGradient>
    <radialGradient id="glowA" cx="0.5" cy="0.5" r="0.5">
      <stop offset="0" stop-color="#9184d9" stop-opacity="0.5"></stop>
      <stop offset="1" stop-color="#9184d9" stop-opacity="0"></stop>
    </radialGradient>
    <radialGradient id="glowB" cx="0.5" cy="0.5" r="0.5">
      <stop offset="0" stop-color="#3b4470" stop-opacity="0.5"></stop>
      <stop offset="1" stop-color="#3b4470" stop-opacity="0"></stop>
    </radialGradient>
    <linearGradient id="book" x1="0" y1="0" x2="1" y2="1">
      <stop offset="0" stop-color="#c3b9ff"></stop>
      <stop offset="1" stop-color="#8b6cf0"></stop>
    </linearGradient>
    <linearGradient id="stroke" x1="0" y1="0" x2="1" y2="1">
      <stop offset="0" stop-color="#ffffff" stop-opacity="0.98"></stop>
      <stop offset="1" stop-color="#e3e0f7" stop-opacity="0.82"></stop>
    </linearGradient>
    <clipPath id="round">
      <rect x="0" y="0" width="512" height="512" rx="115" ry="115"></rect>
    </clipPath>
  </defs>

  <g clip-path="url(#round)">
    <rect x="0" y="0" width="512" height="512" fill="url(#tile)"></rect>
    <ellipse cx="70" cy="60" rx="150" ry="150" fill="url(#glowA)"></ellipse>
    <ellipse cx="450" cy="470" rx="160" ry="160" fill="url(#glowB)"></ellipse>
    <rect x="0" y="0" width="512" height="512" fill="url(#sheen)"></rect>

    <g fill="none" stroke="url(#stroke)" stroke-width="30" stroke-linecap="round" stroke-linejoin="round">
      <circle cx="214" cy="206" r="130"></circle>
      <line x1="306" y1="298" x2="424" y2="416"></line>
    </g>
    <path d="M174 168 Q174 150 192 150 L236 150 Q254 150 254 168 L254 268 L214 243 L174 268 Z" fill="url(#book)"></path>

    <rect x="3" y="3" width="506" height="506" rx="112" ry="112" fill="none" stroke="#ffffff" stroke-opacity="0.10" stroke-width="6"></rect>
  </g>
</svg>